<svg width="128" height="128" fill="none" xmlns="http://www.w3.org/2000/svg"><g clip-path="url(#a)" fill-rule="evenodd" clip-rule="evenodd"><path d="M64 128c35.346 0 64-28.654 64-64 0-35.346-28.654-64-64-64C28.654 0 0 28.654 0 64c0 35.346 28.654 64 64 64Zm0-5c32.585 0 59-26.415 59-59S96.585 5 64 5 5 31.415 5 64s26.415 59 59 59Z" fill="url(#b)"/><path d="M29.233 23.763c0-.001-.001-.002 4.027-2.881l4.027-2.88.004.004.025.035.119.163a86.693 86.693 0 0 0 2.411 3.092c1.66 2.031 3.997 4.722 6.726 7.395 2.747 2.69 5.78 5.253 8.823 7.116 3.099 1.897 5.8 2.817 7.986 2.817 2.185 0 4.887-.92 7.985-2.817 3.043-1.863 6.077-4.426 8.823-7.116 2.73-2.673 5.067-5.364 6.726-7.396a86.655 86.655 0 0 0 1.918-2.43 54.983 54.983 0 0 0 .612-.823l.026-.036.003-.005s0 .002 4.028 2.88c4.028 2.88 4.027 2.88 4.027 2.882l-.002.002-.005.006-.013.02-.045.061a64.92 64.92 0 0 1-.742.997 96.546 96.546 0 0 1-2.137 2.71c-1.816 2.224-4.403 5.206-7.466 8.207-3.046 2.983-6.674 6.094-10.582 8.487-3.853 2.358-8.391 4.274-13.156 4.274-4.765 0-9.304-1.916-13.156-4.274-3.908-2.393-7.536-5.504-10.582-8.487-3.064-3-5.65-5.983-7.466-8.206a96.697 96.697 0 0 1-2.138-2.711 65.136 65.136 0 0 1-.742-.997l-.044-.062-.014-.019-.006-.008ZM37.286 18Z" fill="#FFB047"/><path d="M30.06 104.237c-.002.001-.002.002 4.026 2.881s4.028 2.88 4.027 2.881l.004-.005.025-.035.119-.163c.108-.147.275-.371.494-.661.44-.579 1.09-1.418 1.917-2.43 1.66-2.032 3.997-4.723 6.726-7.396 2.747-2.69 5.78-5.253 8.823-7.116 3.099-1.897 5.8-2.817 7.986-2.817 2.185 0 4.887.92 7.986 2.817 3.043 1.863 6.076 4.426 8.823 7.116 2.729 2.673 5.066 5.364 6.726 7.396a87.308 87.308 0 0 1 1.917 2.43c.22.29.386.514.494.661l.118.163.026.035.004.005c0-.001-.001-.002 4.027-2.881a992.204 992.204 0 0 0 4.027-2.881l-.002-.002-.004-.006-.014-.019-.045-.062-.158-.217a64.488 64.488 0 0 0-.583-.78 97.307 97.307 0 0 0-2.138-2.711c-1.816-2.223-4.403-5.205-7.466-8.206-3.046-2.983-6.674-6.094-10.582-8.487-3.852-2.358-8.391-4.274-13.156-4.274-4.765 0-9.304 1.916-13.156 4.274-3.908 2.393-7.536 5.504-10.582 8.487-3.063 3-5.65 5.983-7.466 8.206a97.08 97.08 0 0 0-2.138 2.711 63.636 63.636 0 0 0-.741.997l-.045.062-.014.019-.006.008ZM38.112 110Z" fill="#F56945"/><path d="M104.237 97.53c.001 0 .002 0 2.881-4.028s2.88-4.027 2.881-4.027l-.005-.004-.035-.025-.163-.119a65.55 65.55 0 0 1-.661-.494 87.347 87.347 0 0 1-2.43-1.917c-2.032-1.66-4.723-3.997-7.396-6.726-2.69-2.747-5.253-5.78-7.116-8.823-1.897-3.099-2.817-5.8-2.817-7.986 0-2.185.92-4.887 2.817-7.985 1.863-3.043 4.426-6.077 7.116-8.823 2.673-2.73 5.364-5.067 7.396-6.726a87.347 87.347 0 0 1 2.43-1.918c.29-.22.514-.385.661-.494l.163-.118.035-.026.005-.003c-.001 0-.002 0-2.881-4.028s-2.88-4.027-2.881-4.027l-.002.002-.006.005-.019.013-.062.045c-.052.038-.125.09-.217.159-.185.136-.449.331-.78.582a97.117 97.117 0 0 0-2.711 2.138c-2.223 1.816-5.205 4.403-8.206 7.467-2.983 3.046-6.094 6.674-8.487 10.581-2.358 3.853-4.274 8.391-4.274 13.156 0 4.765 1.916 9.304 4.274 13.156 2.393 3.908 5.504 7.536 8.487 10.582 3 3.064 5.983 5.65 8.206 7.466a97.117 97.117 0 0 0 2.711 2.138 63.429 63.429 0 0 0 .997.742l.062.044.019.014.008.006ZM110 89.475Z" fill="#F49133"/><path d="M23.763 30.058c-.001 0-.002 0-2.881 4.027l-2.88 4.028.004.003.035.026c.035.024.089.064.163.118.147.109.371.275.66.494.58.44 1.42 1.09 2.431 1.918 2.032 1.66 4.723 3.997 7.396 6.726 2.69 2.746 5.253 5.78 7.116 8.823 1.897 3.098 2.817 5.8 2.817 7.985 0 2.186-.92 4.887-2.817 7.986-1.863 3.043-4.426 6.076-7.116 8.823-2.673 2.729-5.364 5.066-7.396 6.726a86.655 86.655 0 0 1-2.43 1.917 54.983 54.983 0 0 1-.823.613l-.036.025-.005.004s.002-.001 2.88 4.027c2.88 4.029 2.88 4.028 2.882 4.027l.002-.002.006-.004.02-.014.061-.044.217-.159c.185-.136.449-.332.78-.583a96.546 96.546 0 0 0 2.71-2.138c2.224-1.816 5.206-4.402 8.207-7.466 2.983-3.046 6.094-6.674 8.487-10.582 2.358-3.852 4.274-8.39 4.274-13.156 0-4.765-1.916-9.303-4.274-13.156-2.393-3.907-5.504-7.536-8.487-10.581-3-3.064-5.983-5.65-8.206-7.467a96.697 96.697 0 0 0-2.711-2.138 65.136 65.136 0 0 0-.997-.741l-.062-.045-.019-.013-.008-.007ZM18 38.112Z" fill="#EC8451"/></g><defs><radialGradient id="b" cx="0" cy="0" r="1" gradientUnits="userSpaceOnUse" gradientTransform="rotate(47.227 -.08 34.093) scale(127.375)"><stop stop-color="#FFB047"/><stop offset="1" stop-color="#F56945"/></radialGradient><clipPath id="a"><path fill="#fff" d="M0 0h128v128H0z"/></clipPath></defs></svg>
